<?xml version="1.0" encoding="UTF-8"?>
<svg xmlns="http://www.w3.org/2000/svg" viewBox="0 0 1200 1200" width="1200" height="1200">
  <path d="M764,342h215l10,2,9,6,5,8,2,8v100l-3,10-4,6-7,5-6,2-9,1-170,1-5,5-1,3v9l3,6,5,3,57,8,52,7,28,6,18,6,17,8,14,10,14,14,8,13,4,8,6,18,3,16,1,13v97l-3,21-5,17-7,16-8,12-8,10-11,9-11,8-14,8-21,8-21,5-15,2-12,1-44,1h-89l-109-1-10-2-9-6-5-9-1-4v-104l4-10,5-6,8-4,4-1,199-1,7-3,2-5v-9l-3-8-8-3-64-9-48-7-26-6-17-6-16-8-12-9-9-8-7-9-8-14-6-15-4-18-1-9v-112l3-18,7-21,8-15,10-13,11-11,13-9,14-8,18-7,14-4,23-4zM313,342h217l9,2,9,6,5,8,2,8v100l-3,10-6,8-8,4-12,2h-166l-7,3-3,6v9l3,6,5,3,49,7,60,8,24,5,17,5,20,9,16,11,8,7,10,13,6,10,7,19,3,13,2,20v97l-3,21-4,14-7,17-7,11-8,10-11,11-16,11-16,8-16,6-21,5-15,2-11,1-111,1-132-1-12-3-7-5-5-9-1-4v-104l3-9,6-7,8-4,5-1,198-1,7-2,2-7v-8l-3-7-4-3-46-7-51-7-29-5-19-5-16-6-14-7-12-9-10-9-10-14-8-17-5-19-2-15v-112l4-21,4-12,8-16,7-11,11-12,3-3h2v-2l13-9,9-5,14-7,23-7,23-4zM318,412h167l1,1v5l-1,1-34,1h-122l-17,2-15,5-11,7-9,9-6,12-3,11v78l3,12,5,9,8,7,13,5,42,9,98,20,25,6,14,7,5,4,8,11,5,13,3,19v61l-3,15-8,16-9,10-7,6-14,8-12,4-12,2-15,1h-170l-1-1v-7l178-1,20-3,17-7,9-7,7-7,6-10,4-12,2-17v-41l-2-21-4-13-5-9-9-8-11-5-15-4-138-28-19-5-11-6-7-7-6-12-2-9-1-9v-71l3-15,7-14,11-12,10-7,11-5zM770,412h166l1,4-1,3-14,1h-142l-17,2-13,4-12,7-9,9-5,8-3,7-2,9v77l3,13,5,9,8,7,9,4,27,6,131,27,16,5,10,6,5,4,7,10,5,13,2,9,1,10v61l-3,15-8,16-11,12-11,8-16,7-16,3-24,1h-158l-4-1v-7l179-1,14-2,16-5,10-6,10-9,7-10,4-10,2-8,1-13v-40l-1-16-4-17-6-11-9-8-11-5-15-4-123-25-28-6-12-5-8-6-6-7-4-9-2-9-1-9v-70l2-12,5-13,8-11,7-7,11-7,16-6z" fill="#FFFFFF"/>
</svg>
